<svg x="0" y="0" width="1920" height="1080" viewBox="0 0 1920 1080" xmlns="http://www.w3.org/2000/svg" xmlns:xlink="http://www.w3.org/1999/xlink" xmlns:fi="http://pattern.flaticon.com/" opacity="0.5"><rect x="0px" y="0px" width="100%" height="100%" opacity="1" fill="#ffffff"/><defs><g transform="matrix(0.1171875 0 0 0.1171875 280 46)" id="L1_3"><path d="m146 126c22.056 0 40-17.944 40-40s-17.944-40-40-40-40 17.944-40 40 17.944 40 40 40zm0-60c11.028 0 20 8.972 20 20s-8.972 20-20 20-20-8.972-20-20 8.972-20 20-20z"/><path d="m415.429 236.89c29.918-14.643 50.571-45.398 50.571-80.89 0-49.626-40.374-90-90-90-40.377 0-74.628 26.729-85.993 63.421-11.143-2.262-22.55-3.421-34.007-3.421-93.738 0-170 76.262-170 170s76.262 170 170 170 170-76.262 170-170c0-20.385-3.56-40.232-10.571-59.11zm-39.429-150.89c38.598 0 70 31.402 70 70s-31.402 70-70 70-70-31.402-70-70 31.402-70 70-70zm-120 360c-33.696 0-64.831-11.171-89.901-30h89.901c11.046 0 20-8.954 20-20 0-11.046-8.954-20-20-20h-80c-11.046 0-20-8.954-20-20 0-11.046 8.954-20 20-20h30c11.046 0 20-8.954 20-20 0-11.046-8.954-20-20-20h-100c0-21.323 4.482-41.616 12.538-60h107.462c11.046 0 20-8.954 20-20 0-11.046-8.954-20-20-20h-81.7c27.484-30.668 67.374-50 111.7-50 10.202 0 20.356 1.037 30.265 3.065-.175 2.289-.265 4.602-.265 6.935 0 49.626 40.374 90 90 90 7.083 0 13.977-.826 20.593-2.38 6.238 16.716 9.407 34.305 9.407 52.38 0 6.781-.461 13.455-1.337 20h-78.663c-11.046 0-20 8.954-20 20 0 11.046 8.954 20 20 20h67.462c-23.192 52.928-76.075 90-137.462 90z"/><circle cx="346" cy="146" r="20"/><circle cx="376" cy="116" r="10"/><circle cx="406" cy="196" r="10"/><circle cx="366" cy="186" r="5"/><path d="m42 326c-16.542 0-30 13.458-30 30s13.458 30 30 30 30-13.458 30-30-13.458-30-30-30zm0 40c-5.514 0-10-4.486-10-10s4.486-10 10-10 10 4.486 10 10-4.486 10-10 10z"/><path d="m440 266c0 16.542 13.458 30 30 30s30-13.458 30-30-13.458-30-30-30-30 13.458-30 30zm30-10c5.514 0 10 4.486 10 10s-4.486 10-10 10-10-4.486-10-10 4.486-10 10-10z"/><path d="m502 406c-16.542 0-30-13.458-30-30 0-5.523-4.478-10-10-10s-10 4.477-10 10c0 16.542-13.458 30-30 30-5.522 0-10 4.477-10 10s4.478 10 10 10c16.542 0 30 13.458 30 30 0 5.523 4.478 10 10 10s10-4.477 10-10c0-16.542 13.458-30 30-30 5.522 0 10-4.477 10-10s-4.478-10-10-10z"/><path d="m40 216c0 5.523 4.477 10 10 10s10-4.477 10-10c0-16.542 13.458-30 30-30 5.523 0 10-4.477 10-10s-4.477-10-10-10c-16.542 0-30-13.458-30-30 0-5.523-4.477-10-10-10s-10 4.477-10 10c0 16.542-13.458 30-30 30-5.523 0-10 4.477-10 10s4.477 10 10 10c16.542 0 30 13.458 30 30z"/></g><g transform="matrix(0.11719871312379837 0 0 0.11719871312379837 111.00000762939453 130)" id="L1_5"><circle cx="340" cy="223" r="20"/><circle cx="380" cy="241" r="10"/><circle cx="329" cy="190" r="5"/><path d="m414.026 158.166c-.012-.012-.025-.023-.037-.035-.003-.003-.006-.006-.009-.01l-150.916-148.994c-12.17-12.17-31.972-12.17-44.143 0-12.17 12.17-12.17 31.973 0 44.143l50 50c4.372 4.372 4.372 11.485 0 15.857-2.117 2.118-4.934 3.284-7.929 3.284s-5.812-1.166-7.929-3.284l-90-90c-5.896-5.896-13.734-9.142-22.071-9.142s-16.176 3.246-22.071 9.142c-12.17 12.17-12.17 31.973-.036 44.106l189.039 190.962c.002.002.004.003.006.006.01.01.019.021.029.03 14.166 14.166 33 21.968 53.033 21.968s38.867-7.802 53.033-21.968c29.243-29.241 29.243-76.822.001-106.065zm-280.962-99.039c-4.372-4.372-4.372-11.485 0-15.857 4.372-4.373 11.486-4.373 15.857 0l90 90c12.171 12.17 31.973 12.17 44.143 0s12.17-31.973 0-44.143l-50-50c-4.372-4.372-4.372-11.485 0-15.857 4.372-4.373 11.486-4.371 15.903.045l114.435 112.977c-20.001-.637-40.21 6.642-55.442 21.874-15.258 15.259-22.537 35.51-21.872 55.543zm266.819 190.962c-10.388 10.389-24.199 16.11-38.891 16.11s-28.503-5.722-38.891-16.11c-21.444-21.443-21.444-56.337 0-77.781 10.724-10.724 24.805-16.084 38.891-16.084 4.975 0 9.948.684 14.775 2.021-2.973 3.491-4.775 8.009-4.775 12.954 0 11.046 8.954 20 20 20 6.988 0 13.132-3.59 16.708-9.021 13.181 21.212 10.585 49.51-7.817 67.911z"/><circle cx="267" cy="448" r="20"/><circle cx="307" cy="466" r="10"/><circle cx="256" cy="415" r="5"/><path d="m340.218 383.932c-.004-.003-.007-.008-.011-.012l-210.93-209.006c-12.169-12.169-31.972-12.169-44.142 0-5.896 5.896-9.143 13.733-9.143 22.071s3.247 16.176 9.142 22.071l110 110c4.372 4.372 4.372 11.485 0 15.857-4.372 4.373-11.486 4.373-15.858 0l-50.001-50c-12.169-12.169-31.972-12.169-44.142 0-5.896 5.896-9.143 13.733-9.143 22.071s3.247 16.176 9.097 22.025l149.038 150.962c.004.004.009.008.013.012.011.011.021.022.032.034 14.623 14.623 33.824 21.932 53.032 21.932 19.204 0 38.414-7.313 53.033-21.932 14.166-14.166 21.968-33 21.968-53.033s-7.802-38.867-21.968-53.033c-.003-.005-.01-.012-.017-.019zm-240.941-59.017c-2.118-2.118-3.284-4.934-3.284-7.929s1.166-5.811 3.285-7.929c4.371-4.373 11.485-4.373 15.857 0l50 50c12.17 12.168 31.971 12.168 44.143 0 12.17-12.17 12.17-31.973 0-44.143l-110.001-110c-2.118-2.118-3.284-4.934-3.284-7.929s1.166-5.811 3.285-7.929c4.371-4.372 11.485-4.371 15.89.032l174.583 172.992c-20.045-.674-40.31 6.604-55.577 21.872-14.166 14.166-21.967 33-21.967 53.033 0 .794.033 1.583.058 2.373zm226.819 150.961c-21.439 21.442-56.325 21.445-77.772.009l-.026-.025c-10.378-10.386-16.093-24.19-16.093-38.874 0-14.691 5.721-28.503 16.109-38.891 10.723-10.723 24.807-16.083 38.891-16.083 4.975 0 9.948.683 14.775 2.021-2.973 3.491-4.775 8.008-4.775 12.953 0 11.046 8.954 20 20 20 6.995 0 13.142-3.597 16.717-9.036 5.388 8.631 8.284 18.608 8.284 29.036.001 14.691-5.721 28.503-16.11 38.89z"/></g><g transform="matrix(0.1171875 0 0 0.1171875 284 221)" id="L1_8"><g><path d="m326.722 341.705c2.654-2.654 3.599-6.572 2.445-10.143-8.774-27.173-4.521-37.342 21.678-51.81 3.186-1.76 5.165-5.113 5.165-8.753s-1.978-6.993-5.165-8.753c-26.197-14.468-30.452-24.636-21.678-51.81 1.153-3.572.209-7.49-2.445-10.143-2.655-2.655-6.574-3.6-10.142-2.445-27.176 8.773-37.344 4.52-51.811-21.678-1.761-3.187-5.113-5.166-8.753-5.166s-6.994 1.979-8.753 5.166c-14.467 26.196-24.635 30.451-51.81 21.678-3.571-1.153-7.488-.21-10.143 2.445-2.654 2.654-3.598 6.572-2.445 10.143 8.774 27.173 4.52 37.342-21.678 51.81-3.187 1.76-5.165 5.113-5.165 8.753s1.979 6.994 5.165 8.753c26.197 14.468 30.451 24.636 21.678 51.81-1.153 3.572-.209 7.489 2.445 10.143s6.572 3.597 10.143 2.445c27.175-8.773 37.343-4.52 51.81 21.678 1.76 3.187 5.113 5.165 8.753 5.165s6.993-1.978 8.753-5.165c14.468-26.197 24.637-30.451 51.811-21.678 3.569 1.152 7.488.208 10.142-2.445zm-20.751-20.753c-10.847-1.724-19.776-.875-27.826 2.512-8.109 3.411-15.219 9.395-22.128 18.8-6.909-9.405-14.018-15.389-22.128-18.8-5.349-2.25-11.082-3.38-17.51-3.38-3.249 0-6.674.289-10.316.868 1.724-10.847.874-19.775-2.512-27.826-3.411-8.109-9.395-15.219-18.8-22.128 9.405-6.909 15.389-14.018 18.8-22.128 3.386-8.05 4.236-16.979 2.512-27.826 10.846 1.725 19.775.874 27.826-2.512 8.109-3.411 15.219-9.395 22.128-18.8 6.909 9.405 14.018 15.389 22.128 18.8 8.051 3.386 16.978 4.236 27.826 2.512-1.725 10.847-.875 19.775 2.512 27.826 3.411 8.109 9.395 15.219 18.801 22.128-9.405 6.909-15.39 14.018-18.801 22.128-3.387 8.051-4.237 16.978-2.512 27.826z"/><path d="m256.017 231.002c-22.055 0-39.997 17.943-39.997 39.997s17.943 39.997 39.997 39.997 39.997-17.943 39.997-39.997-17.943-39.997-39.997-39.997zm0 59.996c-11.027 0-19.999-8.971-19.999-19.999s8.972-19.999 19.999-19.999 19.999 8.971 19.999 19.999-8.972 19.999-19.999 19.999z"/><path d="m130.435 283.138c-.414-.266-.844-.486-1.28-.684-7.563-18.023-25.387-30.715-46.125-30.715-4.603 0-9.057.638-13.293 1.808-.435-.232-.884-.444-1.362-.613-14.934-5.3-28.414-8.625-38.983-9.617-14.783-1.387-24.177 1.983-27.924 10.017-6.801 14.583 11.883 29.733 18.023 34.712 4.056 3.289 8.66 6.63 13.696 9.96-.092 1.233-.154 2.474-.154 3.73 0 27.568 22.429 49.997 49.997 49.997 14.158 0 26.95-5.925 36.056-15.414 8.196 2.021 16.324 3.361 23.469 3.361 10.285 0 18.538-2.774 22.038-10.278 5.786-12.409-5.707-27.973-34.158-46.264zm-17.407 18.598c0 4.032-.805 7.878-2.254 11.394-9.282-2.992-20.026-7.131-31.97-12.7-8.533-3.979-16.106-7.958-22.752-11.799 4.874-9.991 15.134-16.893 26.978-16.893 16.541 0 29.998 13.457 29.998 29.998zm-90.926-38.749c4.682-.097 12.963.853 24.897 4.143-3.069 3.194-5.727 6.786-7.867 10.701-8.533-6.076-14.184-11.284-17.03-14.844zm60.928 68.747c-13.473 0-24.898-8.929-28.673-21.18 5.137 2.749 10.486 5.432 15.996 8 4.222 1.969 13.722 6.245 25.18 10.438-3.808 1.755-8.041 2.742-12.503 2.742zm47.177-13.472c1.039-2.958 1.813-6.039 2.28-9.22 5.85 4.601 9.412 8.248 11.415 10.757-3.167.07-7.797-.383-13.695-1.537z"/><path d="m86.028 201.004c0 22.055 17.943 39.997 39.997 39.997s39.997-17.943 39.997-39.997-17.943-39.997-39.997-39.997-39.997 17.942-39.997 39.997zm39.998-19.999c11.027 0 19.999 8.971 19.999 19.999s-8.971 19.999-19.999 19.999-19.999-8.971-19.999-19.999 8.971-19.999 19.999-19.999z"/><path d="m462.003 270.999c-27.568 0-49.997 22.429-49.997 49.997s22.428 49.997 49.997 49.997 49.997-22.429 49.997-49.997c0-27.569-22.428-49.997-49.997-49.997zm0 79.995c-16.541 0-29.998-13.457-29.998-29.998s13.457-29.998 29.998-29.998 29.998 13.457 29.998 29.998-13.457 29.998-29.998 29.998z"/><path d="m406.007 360.993c-16.541 0-29.998-13.457-29.998-29.998 0-5.523-4.477-9.999-9.999-9.999s-9.999 4.477-9.999 9.999c0 16.541-13.457 29.998-29.998 29.998-5.522 0-9.999 4.477-9.999 9.999s4.478 9.999 9.999 9.999c16.541 0 29.998 13.457 29.998 29.998 0 5.523 4.478 9.999 9.999 9.999 5.523 0 9.999-4.477 9.999-9.999 0-16.541 13.457-29.998 29.998-29.998 5.523 0 9.999-4.477 9.999-9.999s-4.477-9.999-9.999-9.999z"/><path d="m16.033 151.007c16.541 0 29.998 13.457 29.998 29.998 0 5.523 4.477 9.999 9.999 9.999s9.999-4.477 9.999-9.999c0-16.541 13.457-29.998 29.998-29.998 5.523 0 9.999-4.477 9.999-9.999s-4.477-9.999-9.999-9.999c-16.541 0-29.998-13.457-29.998-29.998 0-5.523-4.477-9.999-9.999-9.999s-9.999 4.477-9.999 9.999c0 16.541-13.457 29.998-29.998 29.998-5.523 0-9.999 4.477-9.999 9.999s4.476 9.999 9.999 9.999z"/></g><path d="m459.077 205.931c-3.906-3.905-10.236-3.905-14.143 0l-19.954 19.954c-2.94-6.021-7.836-10.917-13.857-13.857l47.954-47.954c3.905-3.905 3.905-10.237-.001-14.142-3.906-3.905-10.236-3.905-14.143 0l-65.673 65.673c-6.854 5.503-11.255 13.944-11.255 23.398 0 16.542 13.458 30 30 30 9.454 0 17.896-4.401 23.399-11.256l37.673-37.673c3.905-3.905 3.905-10.237 0-14.143zm-61.072 43.477c-5.747 0-10.406-4.659-10.406-10.406s4.659-10.406 10.406-10.406 10.406 4.659 10.406 10.406-4.659 10.406-10.406 10.406z"/></g><g transform="matrix(0.1171875 0 0 0.1171875 116.00000762939453 300)" id="L1_9"><path d="m509.071 414.928-120-120c-3.905-3.904-10.237-3.904-14.143 0l-32.928 32.929-11.858-11.857 62.929-62.929c3.905-3.905 3.905-10.237 0-14.143l-28.243-28.243c2.053.18 4.112.281 6.172.281 17.925 0 35.851-6.822 49.497-20.469 1.875-1.876 2.929-4.419 2.929-7.071s-1.054-5.195-2.929-7.071l-35.355-35.355 17.929-17.929c.001-.001.002-.002.003-.003 3.917 1.878 8.3 2.932 12.926 2.932 16.542 0 30-13.458 30-30s-13.458-30-30-30-30 13.458-30 30c0 4.626 1.054 9.009 2.932 12.926-.001.001-.002.002-.003.003l-17.929 17.928-35.355-35.355c-1.875-1.875-4.419-2.929-7.071-2.929s-5.196 1.054-7.071 2.929c-15.214 15.214-21.937 35.747-20.189 55.669l-28.242-28.243c-3.905-3.904-10.237-3.904-14.143 0l-62.929 62.929-11.858-11.857 32.929-32.929c3.905-3.905 3.905-10.237 0-14.143l-120-120c-3.905-3.904-10.237-3.904-14.143 0l-80 80c-3.905 3.905-3.905 10.237 0 14.143l120 120c1.953 1.952 4.512 2.929 7.071 2.929s5.119-.977 7.071-2.929l32.93-32.929 11.857 11.858-92.929 92.929c-3.905 3.905-3.905 10.237 0 14.143l120 120c1.953 1.952 4.512 2.929 7.071 2.929s5.119-.977 7.071-2.929l92.93-92.93 11.857 11.858-32.929 32.929c-3.905 3.905-3.905 10.237 0 14.143l120 120c1.953 1.952 4.512 2.929 7.071 2.929s5.119-.977 7.071-2.929l80-80c3.906-3.906 3.906-10.238.001-14.144zm-93.071-328.928c5.514 0 10 4.486 10 10s-4.486 10-10 10-10-4.486-10-10 4.486-10 10-10zm-86.716 27.425 34.64 34.641.005.005c.002.002.003.003.005.004l34.64 34.641c-19.403 12.832-45.856 10.712-62.929-6.361-17.074-17.073-19.193-43.526-6.361-62.93zm-159.284 42.432-25.858-25.857 25.858-25.858 25.858 25.858zm-105.858-25.857 25.858-25.858 25.857 25.858-25.857 25.857zm40-40 25.858-25.858 25.857 25.858-25.857 25.857zm-14.142-65.858 25.857 25.858-25.857 25.857-25.858-25.857zm-40 40 25.857 25.858-25.857 25.857-25.858-25.857zm80 131.715-25.858-25.857 25.858-25.858 25.857 25.858zm136-55.715 105.858 105.858-62.926 62.926c-.001.001-.002.002-.003.003s-.002.002-.003.003l-52.926 52.925-105.858-105.857 52.927-52.927.002-.002c.001 0 .001-.001.002-.002zm-50 261.715-105.858-105.857 25.858-25.858 105.857 105.858zm140.142 20.143 25.858-25.858 25.857 25.858-25.857 25.857zm40-40 25.858-25.858 25.857 25.858-25.857 25.857zm-14.142-65.858 25.857 25.858-25.857 25.857-25.858-25.857zm-40 40 25.857 25.858-25.857 25.857-25.858-25.857zm80 131.715-25.858-25.857 25.858-25.858 25.857 25.858zm40-40-25.858-25.857 25.858-25.858 25.858 25.858z" fill="#000000"/><path d="m256 296c22.056 0 40-17.944 40-40s-17.944-40-40-40-40 17.944-40 40 17.944 40 40 40zm0-60c11.028 0 20 8.972 20 20s-8.972 20-20 20-20-8.972-20-20 8.972-20 20-20z" fill="#000000"/><circle cx="266" cy="176" r="10" fill="#000000"/><circle cx="286" cy="196" r="10" fill="#000000"/></g></defs><g fi:class="KUsePattern" opacity="0.1"><pattern id="pattern_L1_3" width="350" height="350" patternUnits="userSpaceOnUse"><use xlink:href="#L1_3" x="-350" y="-350"/><use xlink:href="#L1_3" x="0" y="-350"/><use xlink:href="#L1_3" x="350" y="-350"/><use xlink:href="#L1_3" x="-350" y="0"/><use xlink:href="#L1_3" x="0" y="0"/><use xlink:href="#L1_3" x="350" y="0"/><use xlink:href="#L1_3" x="-350" y="350"/><use xlink:href="#L1_3" x="0" y="350"/><use xlink:href="#L1_3" x="350" y="350"/></pattern><rect x="0" y="0" width="100%" height="100%" fill="url(#pattern_L1_3)"/></g><g fi:class="KUsePattern" opacity="0.1"><pattern id="pattern_L1_5" width="350" height="350" patternUnits="userSpaceOnUse"><use xlink:href="#L1_5" x="-350" y="-350"/><use xlink:href="#L1_5" x="0" y="-350"/><use xlink:href="#L1_5" x="350" y="-350"/><use xlink:href="#L1_5" x="-350" y="0"/><use xlink:href="#L1_5" x="0" y="0"/><use xlink:href="#L1_5" x="350" y="0"/><use xlink:href="#L1_5" x="-350" y="350"/><use xlink:href="#L1_5" x="0" y="350"/><use xlink:href="#L1_5" x="350" y="350"/></pattern><rect x="0" y="0" width="100%" height="100%" fill="url(#pattern_L1_5)"/></g><g fi:class="KUsePattern" opacity="0.1"><pattern id="pattern_L1_9" width="350" height="350" patternUnits="userSpaceOnUse"><use xlink:href="#L1_9" x="-350" y="-350"/><use xlink:href="#L1_9" x="0" y="-350"/><use xlink:href="#L1_9" x="350" y="-350"/><use xlink:href="#L1_9" x="-350" y="0"/><use xlink:href="#L1_9" x="0" y="0"/><use xlink:href="#L1_9" x="350" y="0"/><use xlink:href="#L1_9" x="-350" y="350"/><use xlink:href="#L1_9" x="0" y="350"/><use xlink:href="#L1_9" x="350" y="350"/></pattern><rect x="0" y="0" width="100%" height="100%" fill="url(#pattern_L1_9)"/></g><g fi:class="KUsePattern" opacity="0.09"><pattern id="pattern_L1_8" width="350" height="350" patternUnits="userSpaceOnUse"><use xlink:href="#L1_8" x="-350" y="-350"/><use xlink:href="#L1_8" x="0" y="-350"/><use xlink:href="#L1_8" x="350" y="-350"/><use xlink:href="#L1_8" x="-350" y="0"/><use xlink:href="#L1_8" x="0" y="0"/><use xlink:href="#L1_8" x="350" y="0"/><use xlink:href="#L1_8" x="-350" y="350"/><use xlink:href="#L1_8" x="0" y="350"/><use xlink:href="#L1_8" x="350" y="350"/></pattern><rect x="0" y="0" width="100%" height="100%" fill="url(#pattern_L1_8)"/></g></svg>